<svg xmlns="http://www.w3.org/2000/svg" id="a" viewBox="0 0 589.23 712.1"><defs><style>.b,.c{fill:none}.b,.c,.d,.e,.f{stroke:#fff}.b,.c,.d,.e,.f,.g{stroke-miterlimit:10}.b,.d{stroke-width:28px}.c{stroke-width:23px}.e{stroke-width:9.1px}.e,.f,.h,.i{fill:#fff}.g{stroke:#000;stroke-width:21.44px}.h,.i{font-family:DomusTitlingExtrabold,Domus Titling;font-size:57.51px}</style></defs><circle cx="294.61" cy="339.23" r="193.35" class="c"/><polygon points="187.6 402.59 212.39 402.59 212.39 311.54 251.49 365.4 257.23 365.74 323.15 277.18 294.61 277.18 255.37 329.91 216.33 277.18 186.25 277.18 187.6 402.59" class="f"/><path d="M327.88,299.15l16.56-21.97s27.72-3.38,43.27,3.72c0,0,25.69,11.49,24.34,42.93,0,0-1.98,38.87-42.06,41.58h-48.53v37.18h-24.34v-58.82l71.32-.34s21.3-1.69,20.28-23.32c0,0,.34-20.62-21.63-21.3l-39.21,.34Z" class="f"/><rect width="25.69" height="229.08" x="187.27" y="258.95" class="f"/><polygon points="327.88 299.15 294.61 299.15 311.25 277.18 347.6 276.87 327.88 299.15" class="f"/><rect width="24.34" height="76.4" x="297.12" y="343.77" class="f"/><circle cx="294.61" cy="311.3" r="294.61"/><path d="M498.42,311.4c0,113.77-92.23,206-206,206s-206-92.23-206-206S178.65,105.4,292.42,105.4s206,92.23,206,206Z" class="d"/><path d="M452.5,311.42c0,88.42-71.68,160.1-160.1,160.1s-160.1-71.68-160.1-160.1,71.68-160.1,160.1-160.1,160.1,71.68,160.1,160.1Z" class="b"/><path d="M362.35,311.42c0,38.63-31.32,69.95-69.95,69.95s-69.95-31.32-69.95-69.95,31.32-69.96,69.95-69.96,69.95,31.32,69.95,69.96Z" class="d"/><polygon points="471.96 155.17 448.43 174.2 288.31 303.72 484.02 458.04 471.96 155.17" class="g"/><path d="M407.59,311.42c0,63.62-51.57,115.19-115.2,115.19s-115.2-51.58-115.2-115.19,51.58-115.2,115.2-115.2,115.2,51.58,115.2,115.2Z" class="b"/><polygon points="458.34 167.09 319.69 274.61 383.49 300.34 424.79 300.34 458.34 167.09"/><rect width="191.32" height="14.24" x="281.91" y="286.1"/><path d="M452.07,169.27c0,6.04-5.04,10.93-11.25,10.93s-11.25-4.89-11.25-10.93,5.04-10.93,11.25-10.93,11.25,4.89,11.25,10.93Z" class="e"/><path d="M413.57,196.17c0,5.73-4.78,10.38-10.68,10.38s-10.68-4.65-10.68-10.38,4.78-10.38,10.68-10.38,10.68,4.65,10.68,10.38Z" class="e"/><path d="M383.92,228.73c0,6.04-5.04,10.94-11.26,10.94s-11.26-4.9-11.26-10.94,5.04-10.94,11.26-10.94,11.26,4.9,11.26,10.94Z" class="e"/><path d="M343.29,254.04c0,5.98-4.99,10.82-11.14,10.82s-11.14-4.85-11.14-10.82,4.99-10.82,11.14-10.82,11.14,4.84,11.14,10.82Z" class="e"/><path d="M350.69,363.04c0,5.93-4.95,10.73-11.05,10.73s-11.05-4.81-11.05-10.73,4.95-10.73,11.05-10.73,11.05,4.81,11.05,10.73Z" class="e"/><g><text class="i" transform="translate(86.12 210.5) rotate(-59.98)"><tspan x="0" y="0">C</tspan></text><text class="i" transform="translate(104.12 178.79) rotate(-49.72)"><tspan x="0" y="0">O</tspan></text><text class="i" transform="translate(133.35 144.47) rotate(-38.45)"><tspan x="0" y="0">N</tspan></text><text class="i" transform="translate(169.29 116.65) rotate(-28.4)"><tspan x="0" y="0">T</tspan></text><text class="i" transform="translate(200.29 99.88) rotate(-19.2)"><tspan x="0" y="0">R</tspan></text><text class="i" transform="translate(236.62 87.3) rotate(-9.3)"><tspan x="0" y="0">A</tspan></text><text class="i" transform="translate(307.96 80.89) rotate(8.95)"><tspan x="0" y="0">C</tspan></text><text class="i" transform="translate(344.19 86.08) rotate(18.47)"><tspan x="0" y="0">O</tspan></text><text class="i" transform="translate(386.62 100.98) rotate(27.98)"><tspan x="0" y="0">S</tspan></text><text class="i" transform="translate(413.51 115.18) rotate(36.22)"><tspan x="0" y="0">T</tspan></text><text class="i" transform="translate(439.45 133.78) rotate(44.78)"><tspan x="0" y="0">A</tspan></text></g><path d="M423.18,417.39c0,5.57-4.64,10.08-10.37,10.08s-10.38-4.51-10.38-10.08,4.65-10.08,10.38-10.08,10.37,4.51,10.37,10.08Z" class="e"/><path d="M461.89,443.31c0,5.89-4.92,10.67-10.98,10.67s-10.98-4.78-10.98-10.67,4.92-10.67,10.98-10.67,10.98,4.78,10.98,10.67Z" class="e"/><g><text class="h" transform="translate(125.56 525.59) rotate(35.35)"><tspan x="0" y="0">G</tspan></text><text class="h" transform="translate(162.66 551.45) rotate(24.92)"><tspan x="0" y="0">O</tspan></text><text class="h" transform="translate(209.18 571.78) rotate(15.47)"><tspan x="0" y="0">L</tspan></text><text class="h" transform="translate(243.61 580.88) rotate(7.82)"><tspan x="0" y="0">F</tspan></text><text class="h" transform="translate(315.76 585.09) rotate(-8.33)"><tspan x="0" y="0">C</tspan></text><text class="h" transform="translate(356.71 578.42) rotate(-16.67)"><tspan x="0" y="0">L</tspan></text><text class="h" transform="translate(390.4 568.41) rotate(-25.7)"><tspan x="0" y="0">U</tspan></text><text class="h" transform="translate(434.81 545.97) rotate(-35.66)"><tspan x="0" y="0">B</tspan></text></g><polyline points="476.14 164.58 551.39 351.84 493.63 436.03" class="g"/><polygon points="297.68 280.38 308.74 280.38 322.69 298.66 501.15 298.66 517.51 308.28 517.51 314.05 500.67 324.15 322.69 324.15 308.74 342.43 297.68 342.43 297.68 280.38" class="f"/></svg>